<mxfile host="app.diagrams.net" agent="Mozilla/5.0 (Windows NT 10.0; Win64; x64) AppleWebKit/537.36 (KHTML, like Gecko) Chrome/128.0.0.0 Safari/537.36 Edg/128.0.0.0" version="24.7.14" pages="2">
  <diagram name="第 1 页" id="IrVQx1rGiKCfqA_4ntje">
    <mxGraphModel dx="12068" dy="1176" grid="1" gridSize="5" guides="1" tooltips="1" connect="1" arrows="1" fold="1" page="1" pageScale="1" pageWidth="10000" pageHeight="10000" math="0" shadow="0">
      <root>
        <mxCell id="0" />
        <mxCell id="1" parent="0" />
        <mxCell id="JnshHDqUiIFZR_v37cdG-92" value="" style="rounded=0;whiteSpace=wrap;html=1;fillColor=#f5f5f5;strokeColor=#666666;strokeWidth=3;gradientColor=#b3b3b3;" vertex="1" parent="1">
          <mxGeometry x="220" y="565" width="745" height="440" as="geometry" />
        </mxCell>
        <mxCell id="JnshHDqUiIFZR_v37cdG-1" value="" style="rounded=0;whiteSpace=wrap;html=1;fillColor=#f5f5f5;strokeColor=#666666;strokeWidth=3;gradientColor=#b3b3b3;" vertex="1" parent="1">
          <mxGeometry x="225" y="80" width="945" height="440" as="geometry" />
        </mxCell>
        <mxCell id="JnshHDqUiIFZR_v37cdG-2" value="" style="endArrow=classic;html=1;rounded=0;fontSize=11;strokeWidth=0.25;endSize=6;startSize=6;" edge="1" parent="1">
          <mxGeometry width="50" height="50" relative="1" as="geometry">
            <mxPoint x="80" y="480" as="sourcePoint" />
            <mxPoint x="225" y="480" as="targetPoint" />
          </mxGeometry>
        </mxCell>
        <mxCell id="JnshHDqUiIFZR_v37cdG-9" value="clk" style="edgeLabel;html=1;align=center;verticalAlign=middle;resizable=0;points=[];fontSize=11;" vertex="1" connectable="0" parent="JnshHDqUiIFZR_v37cdG-2">
          <mxGeometry x="-0.0143" relative="1" as="geometry">
            <mxPoint as="offset" />
          </mxGeometry>
        </mxCell>
        <mxCell id="JnshHDqUiIFZR_v37cdG-3" value="" style="endArrow=classic;html=1;rounded=0;fontSize=11;strokeWidth=0.25;endSize=6;startSize=6;" edge="1" parent="1">
          <mxGeometry width="50" height="50" relative="1" as="geometry">
            <mxPoint x="80" y="500" as="sourcePoint" />
            <mxPoint x="225" y="500" as="targetPoint" />
          </mxGeometry>
        </mxCell>
        <mxCell id="JnshHDqUiIFZR_v37cdG-11" value="rst_n" style="edgeLabel;html=1;align=center;verticalAlign=middle;resizable=0;points=[];fontSize=11;" vertex="1" connectable="0" parent="JnshHDqUiIFZR_v37cdG-3">
          <mxGeometry x="-0.0286" relative="1" as="geometry">
            <mxPoint as="offset" />
          </mxGeometry>
        </mxCell>
        <mxCell id="JnshHDqUiIFZR_v37cdG-4" value="" style="endArrow=classic;html=1;rounded=0;entryX=0;entryY=0.25;entryDx=0;entryDy=0;fontSize=11;strokeWidth=1;endSize=6;startSize=6;" edge="1" parent="1">
          <mxGeometry width="50" height="50" relative="1" as="geometry">
            <mxPoint x="110" y="162" as="sourcePoint" />
            <mxPoint x="270" y="162" as="targetPoint" />
          </mxGeometry>
        </mxCell>
        <mxCell id="JnshHDqUiIFZR_v37cdG-12" value="col_cnt" style="edgeLabel;html=1;align=center;verticalAlign=middle;resizable=0;points=[];fontSize=11;" vertex="1" connectable="0" parent="JnshHDqUiIFZR_v37cdG-4">
          <mxGeometry x="-0.0143" y="-1" relative="1" as="geometry">
            <mxPoint as="offset" />
          </mxGeometry>
        </mxCell>
        <mxCell id="JnshHDqUiIFZR_v37cdG-5" value="" style="endArrow=classic;html=1;rounded=0;entryX=0;entryY=0.25;entryDx=0;entryDy=0;fontSize=11;strokeWidth=1;endSize=6;startSize=6;" edge="1" parent="1">
          <mxGeometry width="50" height="50" relative="1" as="geometry">
            <mxPoint x="110" y="182" as="sourcePoint" />
            <mxPoint x="270" y="182" as="targetPoint" />
          </mxGeometry>
        </mxCell>
        <mxCell id="JnshHDqUiIFZR_v37cdG-13" value="row_cnt" style="edgeLabel;html=1;align=center;verticalAlign=middle;resizable=0;points=[];fontSize=11;" vertex="1" connectable="0" parent="JnshHDqUiIFZR_v37cdG-5">
          <mxGeometry x="-0.0428" y="1" relative="1" as="geometry">
            <mxPoint as="offset" />
          </mxGeometry>
        </mxCell>
        <mxCell id="JnshHDqUiIFZR_v37cdG-6" value="" style="endArrow=classic;html=1;rounded=0;entryX=0;entryY=0.25;entryDx=0;entryDy=0;fontSize=11;strokeWidth=0.25;endSize=6;startSize=6;" edge="1" parent="1">
          <mxGeometry width="50" height="50" relative="1" as="geometry">
            <mxPoint x="110" y="122" as="sourcePoint" />
            <mxPoint x="270" y="122" as="targetPoint" />
          </mxGeometry>
        </mxCell>
        <mxCell id="JnshHDqUiIFZR_v37cdG-14" value="frame_sync" style="edgeLabel;html=1;align=center;verticalAlign=middle;resizable=0;points=[];fontSize=11;" vertex="1" connectable="0" parent="JnshHDqUiIFZR_v37cdG-6">
          <mxGeometry x="-0.0571" relative="1" as="geometry">
            <mxPoint as="offset" />
          </mxGeometry>
        </mxCell>
        <mxCell id="JnshHDqUiIFZR_v37cdG-15" value="spi_ram_rd_data" style="endArrow=classic;html=1;rounded=0;entryX=0;entryY=0.25;entryDx=0;entryDy=0;fontSize=11;strokeWidth=1;endSize=6;startSize=6;" edge="1" parent="1">
          <mxGeometry x="0.0084" width="50" height="50" relative="1" as="geometry">
            <mxPoint x="80" y="415" as="sourcePoint" />
            <mxPoint x="270" y="415" as="targetPoint" />
            <mxPoint as="offset" />
          </mxGeometry>
        </mxCell>
        <mxCell id="JnshHDqUiIFZR_v37cdG-17" value="" style="endArrow=classic;html=1;rounded=0;entryX=0;entryY=0.25;entryDx=0;entryDy=0;fontSize=11;strokeWidth=1;endSize=6;startSize=6;" edge="1" parent="1">
          <mxGeometry width="50" height="50" relative="1" as="geometry">
            <mxPoint x="80" y="390" as="sourcePoint" />
            <mxPoint x="270" y="390" as="targetPoint" />
          </mxGeometry>
        </mxCell>
        <mxCell id="JnshHDqUiIFZR_v37cdG-18" value="spi_ram_rd_addr" style="edgeLabel;html=1;align=center;verticalAlign=middle;resizable=0;points=[];fontSize=11;" vertex="1" connectable="0" parent="JnshHDqUiIFZR_v37cdG-17">
          <mxGeometry x="-0.0143" relative="1" as="geometry">
            <mxPoint as="offset" />
          </mxGeometry>
        </mxCell>
        <mxCell id="JnshHDqUiIFZR_v37cdG-19" value="" style="rounded=0;whiteSpace=wrap;html=1;fillColor=#d5e8d4;strokeColor=#82b366;" vertex="1" parent="1">
          <mxGeometry x="270" y="95" width="180" height="205" as="geometry" />
        </mxCell>
        <mxCell id="JnshHDqUiIFZR_v37cdG-21" value="" style="rounded=0;whiteSpace=wrap;html=1;fillColor=#fff2cc;strokeColor=#d6b656;" vertex="1" parent="1">
          <mxGeometry x="270" y="315" width="180" height="170" as="geometry" />
        </mxCell>
        <mxCell id="JnshHDqUiIFZR_v37cdG-22" value="PARAMETER_COMPARE" style="text;whiteSpace=wrap;fontStyle=1;fontSize=14;" vertex="1" parent="1">
          <mxGeometry x="525" y="490" width="215" height="35" as="geometry" />
        </mxCell>
        <mxCell id="JnshHDqUiIFZR_v37cdG-23" value="MONITOR_LINE_DETECT" style="text;whiteSpace=wrap;" vertex="1" parent="1">
          <mxGeometry x="290" y="275" width="155" height="35" as="geometry" />
        </mxCell>
        <mxCell id="JnshHDqUiIFZR_v37cdG-25" value="" style="endArrow=classic;html=1;rounded=0;entryX=0;entryY=0.25;entryDx=0;entryDy=0;fontSize=11;strokeWidth=1;endSize=6;startSize=6;" edge="1" parent="1">
          <mxGeometry width="50" height="50" relative="1" as="geometry">
            <mxPoint x="110" y="142" as="sourcePoint" />
            <mxPoint x="270" y="142" as="targetPoint" />
          </mxGeometry>
        </mxCell>
        <mxCell id="JnshHDqUiIFZR_v37cdG-26" value="Pixel_data" style="edgeLabel;html=1;align=center;verticalAlign=middle;resizable=0;points=[];fontSize=11;" vertex="1" connectable="0" parent="JnshHDqUiIFZR_v37cdG-25">
          <mxGeometry x="-0.0428" y="1" relative="1" as="geometry">
            <mxPoint as="offset" />
          </mxGeometry>
        </mxCell>
        <mxCell id="JnshHDqUiIFZR_v37cdG-28" value="" style="endArrow=classic;html=1;rounded=0;entryX=0;entryY=0.25;entryDx=0;entryDy=0;fontSize=11;strokeWidth=1;endSize=6;startSize=6;" edge="1" parent="1">
          <mxGeometry width="50" height="50" relative="1" as="geometry">
            <mxPoint x="110" y="202" as="sourcePoint" />
            <mxPoint x="270" y="202" as="targetPoint" />
          </mxGeometry>
        </mxCell>
        <mxCell id="JnshHDqUiIFZR_v37cdG-29" value="rd_addr" style="edgeLabel;html=1;align=center;verticalAlign=middle;resizable=0;points=[];fontSize=11;" vertex="1" connectable="0" parent="JnshHDqUiIFZR_v37cdG-28">
          <mxGeometry x="-0.0428" y="1" relative="1" as="geometry">
            <mxPoint as="offset" />
          </mxGeometry>
        </mxCell>
        <mxCell id="JnshHDqUiIFZR_v37cdG-30" value="DHA_SPI_MONITOR_LINE_UNPACK" style="text;whiteSpace=wrap;fontSize=10;" vertex="1" parent="1">
          <mxGeometry x="275" y="460" width="230" height="35" as="geometry" />
        </mxCell>
        <mxCell id="JnshHDqUiIFZR_v37cdG-31" value="spi_ram_rd_valid" style="endArrow=classic;html=1;rounded=0;entryX=0;entryY=0.25;entryDx=0;entryDy=0;fontSize=11;strokeWidth=0.25;endSize=6;startSize=6;" edge="1" parent="1">
          <mxGeometry x="0.0084" width="50" height="50" relative="1" as="geometry">
            <mxPoint x="80" y="365" as="sourcePoint" />
            <mxPoint x="270" y="365" as="targetPoint" />
            <mxPoint as="offset" />
          </mxGeometry>
        </mxCell>
        <mxCell id="JnshHDqUiIFZR_v37cdG-34" value="pfd_en" style="endArrow=classic;html=1;rounded=0;entryX=0;entryY=0.25;entryDx=0;entryDy=0;fontSize=11;strokeWidth=0.25;endSize=6;startSize=6;" edge="1" parent="1">
          <mxGeometry x="0.0084" width="50" height="50" relative="1" as="geometry">
            <mxPoint x="80" y="340" as="sourcePoint" />
            <mxPoint x="270" y="340" as="targetPoint" />
            <mxPoint as="offset" />
          </mxGeometry>
        </mxCell>
        <mxCell id="JnshHDqUiIFZR_v37cdG-35" value="" style="endArrow=classic;html=1;rounded=0;fontSize=11;strokeWidth=0.25;endSize=6;startSize=6;" edge="1" parent="1">
          <mxGeometry width="50" height="50" relative="1" as="geometry">
            <mxPoint x="450" y="170" as="sourcePoint" />
            <mxPoint x="830" y="170" as="targetPoint" />
          </mxGeometry>
        </mxCell>
        <mxCell id="JnshHDqUiIFZR_v37cdG-36" value="monitor_line_finish" style="edgeLabel;html=1;align=center;verticalAlign=middle;resizable=0;points=[];fontSize=11;" vertex="1" connectable="0" parent="JnshHDqUiIFZR_v37cdG-35">
          <mxGeometry x="-0.0571" relative="1" as="geometry">
            <mxPoint as="offset" />
          </mxGeometry>
        </mxCell>
        <mxCell id="JnshHDqUiIFZR_v37cdG-37" value="" style="endArrow=classic;html=1;rounded=0;fontSize=11;strokeWidth=1;endSize=6;startSize=6;" edge="1" parent="1">
          <mxGeometry width="50" height="50" relative="1" as="geometry">
            <mxPoint x="450" y="200" as="sourcePoint" />
            <mxPoint x="830" y="200" as="targetPoint" />
          </mxGeometry>
        </mxCell>
        <mxCell id="JnshHDqUiIFZR_v37cdG-38" value="pixel_error_para" style="edgeLabel;html=1;align=center;verticalAlign=middle;resizable=0;points=[];fontSize=11;" vertex="1" connectable="0" parent="JnshHDqUiIFZR_v37cdG-37">
          <mxGeometry x="-0.0571" relative="1" as="geometry">
            <mxPoint as="offset" />
          </mxGeometry>
        </mxCell>
        <mxCell id="JnshHDqUiIFZR_v37cdG-39" value="" style="endArrow=classic;html=1;rounded=0;fontSize=11;strokeWidth=1;endSize=6;startSize=6;" edge="1" parent="1">
          <mxGeometry width="50" height="50" relative="1" as="geometry">
            <mxPoint x="450" y="230" as="sourcePoint" />
            <mxPoint x="830" y="230" as="targetPoint" />
          </mxGeometry>
        </mxCell>
        <mxCell id="JnshHDqUiIFZR_v37cdG-40" value="rd_data" style="edgeLabel;html=1;align=center;verticalAlign=middle;resizable=0;points=[];fontSize=11;" vertex="1" connectable="0" parent="JnshHDqUiIFZR_v37cdG-39">
          <mxGeometry x="-0.0571" relative="1" as="geometry">
            <mxPoint as="offset" />
          </mxGeometry>
        </mxCell>
        <mxCell id="JnshHDqUiIFZR_v37cdG-43" value="para_others_valid" style="endArrow=classic;html=1;rounded=0;fontSize=11;strokeWidth=5;endSize=6;startSize=6;" edge="1" parent="1">
          <mxGeometry x="0.5789" y="10" width="50" height="50" relative="1" as="geometry">
            <mxPoint x="450" y="470" as="sourcePoint" />
            <mxPoint x="830" y="470" as="targetPoint" />
            <mxPoint as="offset" />
          </mxGeometry>
        </mxCell>
        <mxCell id="JnshHDqUiIFZR_v37cdG-45" value="" style="group" vertex="1" connectable="0" parent="1">
          <mxGeometry x="830" y="95" width="175" height="400" as="geometry" />
        </mxCell>
        <mxCell id="JnshHDqUiIFZR_v37cdG-20" value="" style="rounded=0;whiteSpace=wrap;html=1;fillColor=#f8cecc;strokeColor=#b85450;" vertex="1" parent="JnshHDqUiIFZR_v37cdG-45">
          <mxGeometry width="175" height="395" as="geometry" />
        </mxCell>
        <mxCell id="JnshHDqUiIFZR_v37cdG-24" value="DHA_COMPARE_FINAL" style="text;whiteSpace=wrap;" vertex="1" parent="JnshHDqUiIFZR_v37cdG-45">
          <mxGeometry x="15" y="365" width="160" height="35" as="geometry" />
        </mxCell>
        <mxCell id="JnshHDqUiIFZR_v37cdG-54" value="" style="group" vertex="1" connectable="0" parent="1">
          <mxGeometry x="550" y="250" width="130" height="120" as="geometry" />
        </mxCell>
        <mxCell id="JnshHDqUiIFZR_v37cdG-55" value="" style="group" vertex="1" connectable="0" parent="JnshHDqUiIFZR_v37cdG-54">
          <mxGeometry y="55" width="127.5" height="55" as="geometry" />
        </mxCell>
        <mxCell id="JnshHDqUiIFZR_v37cdG-47" value="" style="rounded=0;whiteSpace=wrap;html=1;fillColor=#fff2cc;strokeColor=#d6b656;" vertex="1" parent="JnshHDqUiIFZR_v37cdG-55">
          <mxGeometry width="120" height="47.14285714285714" as="geometry" />
        </mxCell>
        <mxCell id="JnshHDqUiIFZR_v37cdG-50" value="DHA_AS_FILTER" style="text;whiteSpace=wrap;" vertex="1" parent="JnshHDqUiIFZR_v37cdG-55">
          <mxGeometry x="7.5" y="21.64" width="120" height="27.5" as="geometry" />
        </mxCell>
        <mxCell id="JnshHDqUiIFZR_v37cdG-41" value="para_Airspeed" style="endArrow=classic;html=1;rounded=0;fontSize=11;strokeWidth=1;endSize=6;startSize=6;" edge="1" parent="JnshHDqUiIFZR_v37cdG-54">
          <mxGeometry y="15" width="50" height="50" relative="1" as="geometry">
            <mxPoint x="-100" y="80" as="sourcePoint" />
            <mxPoint y="80" as="targetPoint" />
            <mxPoint as="offset" />
          </mxGeometry>
        </mxCell>
        <mxCell id="JnshHDqUiIFZR_v37cdG-57" value="para_others_dout" style="endArrow=classic;html=1;rounded=0;fontSize=11;strokeWidth=5;endSize=6;startSize=6;" edge="1" parent="1">
          <mxGeometry x="0.5789" y="10" width="50" height="50" relative="1" as="geometry">
            <mxPoint x="450" y="440" as="sourcePoint" />
            <mxPoint x="830" y="440" as="targetPoint" />
            <mxPoint as="offset" />
          </mxGeometry>
        </mxCell>
        <mxCell id="JnshHDqUiIFZR_v37cdG-61" value="" style="group" vertex="1" connectable="0" parent="1">
          <mxGeometry x="450" y="365" width="320" height="70" as="geometry" />
        </mxCell>
        <mxCell id="JnshHDqUiIFZR_v37cdG-58" value="" style="group" vertex="1" connectable="0" parent="JnshHDqUiIFZR_v37cdG-61">
          <mxGeometry x="98.75" width="130" height="70" as="geometry" />
        </mxCell>
        <mxCell id="JnshHDqUiIFZR_v37cdG-48" value="" style="rounded=0;whiteSpace=wrap;html=1;fillColor=#fff2cc;strokeColor=#d6b656;" vertex="1" parent="JnshHDqUiIFZR_v37cdG-58">
          <mxGeometry y="7.5" width="121.25" height="45" as="geometry" />
        </mxCell>
        <mxCell id="JnshHDqUiIFZR_v37cdG-49" value="DHA_ALT_FILTER" style="text;whiteSpace=wrap;" vertex="1" parent="JnshHDqUiIFZR_v37cdG-58">
          <mxGeometry x="5" y="27.5" width="125" height="35" as="geometry" />
        </mxCell>
        <mxCell id="JnshHDqUiIFZR_v37cdG-60" value="para_Altitude" style="endArrow=classic;html=1;rounded=0;fontSize=11;strokeWidth=1;endSize=6;startSize=6;" edge="1" parent="JnshHDqUiIFZR_v37cdG-61">
          <mxGeometry y="15" width="50" height="50" relative="1" as="geometry">
            <mxPoint y="29.659999999999968" as="sourcePoint" />
            <mxPoint x="100" y="29.659999999999968" as="targetPoint" />
            <mxPoint as="offset" />
          </mxGeometry>
        </mxCell>
        <mxCell id="JnshHDqUiIFZR_v37cdG-56" value="para_Airspeed_out" style="endArrow=classic;html=1;rounded=0;fontSize=11;strokeWidth=1;endSize=6;startSize=6;" edge="1" parent="1">
          <mxGeometry y="15" width="50" height="50" relative="1" as="geometry">
            <mxPoint x="670" y="330" as="sourcePoint" />
            <mxPoint x="830" y="330" as="targetPoint" />
            <mxPoint as="offset" />
          </mxGeometry>
        </mxCell>
        <mxCell id="JnshHDqUiIFZR_v37cdG-59" value="para_Altitude_out" style="endArrow=classic;html=1;rounded=0;fontSize=11;strokeWidth=1;endSize=6;startSize=6;" edge="1" parent="1">
          <mxGeometry y="15" width="50" height="50" relative="1" as="geometry">
            <mxPoint x="670" y="395" as="sourcePoint" />
            <mxPoint x="830" y="395" as="targetPoint" />
            <mxPoint as="offset" />
          </mxGeometry>
        </mxCell>
        <mxCell id="JnshHDqUiIFZR_v37cdG-65" value="" style="edgeStyle=segmentEdgeStyle;endArrow=none;html=1;curved=0;rounded=0;endSize=8;startSize=8;endFill=0;" edge="1" parent="1">
          <mxGeometry width="50" height="50" relative="1" as="geometry">
            <mxPoint x="1005" y="127" as="sourcePoint" />
            <mxPoint x="110" y="202" as="targetPoint" />
            <Array as="points">
              <mxPoint x="1135" y="127" />
              <mxPoint x="1135" y="42" />
              <mxPoint x="85" y="42" />
              <mxPoint x="85" y="202" />
            </Array>
          </mxGeometry>
        </mxCell>
        <mxCell id="JnshHDqUiIFZR_v37cdG-66" value="rd_addr" style="edgeLabel;html=1;align=center;verticalAlign=middle;resizable=0;points=[];" vertex="1" connectable="0" parent="JnshHDqUiIFZR_v37cdG-65">
          <mxGeometry x="-0.9284" relative="1" as="geometry">
            <mxPoint x="26" as="offset" />
          </mxGeometry>
        </mxCell>
        <mxCell id="JnshHDqUiIFZR_v37cdG-73" value="" style="fontColor=#0066CC;verticalAlign=top;verticalLabelPosition=bottom;labelPosition=center;align=center;html=1;outlineConnect=0;fillColor=#CCCCCC;strokeColor=#6881B3;gradientColor=none;gradientDirection=north;strokeWidth=2;shape=mxgraph.networks.monitor;" vertex="1" parent="1">
          <mxGeometry x="-22.5" y="135" width="80" height="60" as="geometry" />
        </mxCell>
        <mxCell id="JnshHDqUiIFZR_v37cdG-74" value="" style="pointerEvents=1;shadow=0;dashed=0;html=1;strokeColor=none;fillColor=#4495D1;labelPosition=center;verticalLabelPosition=bottom;verticalAlign=top;align=center;outlineConnect=0;shape=mxgraph.veeam.ram;" vertex="1" parent="1">
          <mxGeometry x="-20" y="370" width="75" height="45" as="geometry" />
        </mxCell>
        <mxCell id="JnshHDqUiIFZR_v37cdG-77" value="upload" style="endArrow=classic;html=1;rounded=0;fontSize=11;strokeWidth=5;endSize=6;startSize=6;" edge="1" parent="1">
          <mxGeometry y="10" width="50" height="50" relative="1" as="geometry">
            <mxPoint x="1005" y="280" as="sourcePoint" />
            <mxPoint x="1215" y="280" as="targetPoint" />
            <mxPoint as="offset" />
          </mxGeometry>
        </mxCell>
        <mxCell id="JnshHDqUiIFZR_v37cdG-78" value="" style="endArrow=classic;html=1;rounded=0;fontSize=11;strokeWidth=0.25;endSize=6;startSize=6;" edge="1" parent="1">
          <mxGeometry width="50" height="50" relative="1" as="geometry">
            <mxPoint x="1005" y="330" as="sourcePoint" />
            <mxPoint x="1210" y="330" as="targetPoint" />
          </mxGeometry>
        </mxCell>
        <mxCell id="JnshHDqUiIFZR_v37cdG-79" value="upload_finish" style="edgeLabel;html=1;align=center;verticalAlign=middle;resizable=0;points=[];fontSize=11;" vertex="1" connectable="0" parent="JnshHDqUiIFZR_v37cdG-78">
          <mxGeometry x="-0.0571" relative="1" as="geometry">
            <mxPoint as="offset" />
          </mxGeometry>
        </mxCell>
        <mxCell id="JnshHDqUiIFZR_v37cdG-80" value="" style="endArrow=classic;html=1;rounded=0;fontSize=11;strokeWidth=1;endSize=6;startSize=6;" edge="1" parent="1">
          <mxGeometry width="50" height="50" relative="1" as="geometry">
            <mxPoint x="1005" y="230" as="sourcePoint" />
            <mxPoint x="1210" y="230" as="targetPoint" />
          </mxGeometry>
        </mxCell>
        <mxCell id="JnshHDqUiIFZR_v37cdG-81" value="para_shut_upload" style="edgeLabel;html=1;align=center;verticalAlign=middle;resizable=0;points=[];fontSize=11;" vertex="1" connectable="0" parent="JnshHDqUiIFZR_v37cdG-80">
          <mxGeometry x="-0.0571" relative="1" as="geometry">
            <mxPoint as="offset" />
          </mxGeometry>
        </mxCell>
        <mxCell id="JnshHDqUiIFZR_v37cdG-82" value="" style="endArrow=classic;html=1;rounded=0;fontSize=11;strokeWidth=1;endSize=6;startSize=6;" edge="1" parent="1">
          <mxGeometry width="50" height="50" relative="1" as="geometry">
            <mxPoint x="1005" y="205" as="sourcePoint" />
            <mxPoint x="1210" y="205" as="targetPoint" />
          </mxGeometry>
        </mxCell>
        <mxCell id="JnshHDqUiIFZR_v37cdG-83" value="para_err_upload" style="edgeLabel;html=1;align=center;verticalAlign=middle;resizable=0;points=[];fontSize=11;" vertex="1" connectable="0" parent="JnshHDqUiIFZR_v37cdG-82">
          <mxGeometry x="-0.0571" relative="1" as="geometry">
            <mxPoint as="offset" />
          </mxGeometry>
        </mxCell>
        <mxCell id="JnshHDqUiIFZR_v37cdG-85" value="" style="rounded=0;whiteSpace=wrap;html=1;fillColor=#f8cecc;strokeColor=#b85450;" vertex="1" parent="1">
          <mxGeometry x="1215" y="137.5" width="210" height="862.5" as="geometry" />
        </mxCell>
        <mxCell id="JnshHDqUiIFZR_v37cdG-87" value="DHA_SHUTDOWN_AND_UPLOAD" style="text;whiteSpace=wrap;" vertex="1" parent="1">
          <mxGeometry x="1220" y="970" width="215" height="35" as="geometry" />
        </mxCell>
        <mxCell id="JnshHDqUiIFZR_v37cdG-88" value="" style="rounded=0;whiteSpace=wrap;html=1;fillColor=#d5e8d4;strokeColor=#82b366;" vertex="1" parent="1">
          <mxGeometry x="720" y="605" width="175" height="355" as="geometry" />
        </mxCell>
        <mxCell id="JnshHDqUiIFZR_v37cdG-89" value="SYMBOL_MATCH_TOP" style="text;whiteSpace=wrap;" vertex="1" parent="1">
          <mxGeometry x="730" y="935" width="155" height="35" as="geometry" />
        </mxCell>
        <mxCell id="JnshHDqUiIFZR_v37cdG-93" value="" style="group" vertex="1" connectable="0" parent="1">
          <mxGeometry x="265" y="590" width="255" height="370" as="geometry" />
        </mxCell>
        <mxCell id="JnshHDqUiIFZR_v37cdG-94" value="" style="group" vertex="1" connectable="0" parent="JnshHDqUiIFZR_v37cdG-93">
          <mxGeometry x="15" y="35" width="240" height="335" as="geometry" />
        </mxCell>
        <mxCell id="JnshHDqUiIFZR_v37cdG-90" value="" style="rounded=0;whiteSpace=wrap;html=1;fillColor=#d5e8d4;strokeColor=#82b366;" vertex="1" parent="JnshHDqUiIFZR_v37cdG-94">
          <mxGeometry x="-15" y="-5" width="255" height="330" as="geometry" />
        </mxCell>
        <mxCell id="JnshHDqUiIFZR_v37cdG-91" value="VIDEO_PREPROCESSING" style="text;whiteSpace=wrap;" vertex="1" parent="JnshHDqUiIFZR_v37cdG-94">
          <mxGeometry x="-2.5" y="290" width="155" height="35" as="geometry" />
        </mxCell>
        <mxCell id="JnshHDqUiIFZR_v37cdG-95" value="" style="rounded=0;whiteSpace=wrap;html=1;fillColor=#cdeb8b;strokeColor=#36393d;" vertex="1" parent="JnshHDqUiIFZR_v37cdG-94">
          <mxGeometry x="15" y="45" width="147.5" height="200" as="geometry" />
        </mxCell>
        <mxCell id="JnshHDqUiIFZR_v37cdG-96" value="RGB2BINARY_SYMBOL" style="text;whiteSpace=wrap;" vertex="1" parent="JnshHDqUiIFZR_v37cdG-94">
          <mxGeometry x="18.75" y="220" width="140" height="35" as="geometry" />
        </mxCell>
        <mxCell id="JnshHDqUiIFZR_v37cdG-97" value="" style="endArrow=classic;html=1;rounded=0;fontSize=11;strokeWidth=0.25;endSize=6;startSize=6;" edge="1" parent="1">
          <mxGeometry width="50" height="50" relative="1" as="geometry">
            <mxPoint x="75" y="970" as="sourcePoint" />
            <mxPoint x="220" y="970" as="targetPoint" />
          </mxGeometry>
        </mxCell>
        <mxCell id="JnshHDqUiIFZR_v37cdG-98" value="clk" style="edgeLabel;html=1;align=center;verticalAlign=middle;resizable=0;points=[];fontSize=11;" vertex="1" connectable="0" parent="JnshHDqUiIFZR_v37cdG-97">
          <mxGeometry x="-0.0143" relative="1" as="geometry">
            <mxPoint as="offset" />
          </mxGeometry>
        </mxCell>
        <mxCell id="JnshHDqUiIFZR_v37cdG-99" value="" style="endArrow=classic;html=1;rounded=0;fontSize=11;strokeWidth=0.25;endSize=6;startSize=6;" edge="1" parent="1">
          <mxGeometry width="50" height="50" relative="1" as="geometry">
            <mxPoint x="75" y="990" as="sourcePoint" />
            <mxPoint x="220" y="990" as="targetPoint" />
          </mxGeometry>
        </mxCell>
        <mxCell id="JnshHDqUiIFZR_v37cdG-100" value="rst_n" style="edgeLabel;html=1;align=center;verticalAlign=middle;resizable=0;points=[];fontSize=11;" vertex="1" connectable="0" parent="JnshHDqUiIFZR_v37cdG-99">
          <mxGeometry x="-0.0286" relative="1" as="geometry">
            <mxPoint as="offset" />
          </mxGeometry>
        </mxCell>
        <mxCell id="JnshHDqUiIFZR_v37cdG-106" value="" style="endArrow=classic;html=1;rounded=0;entryX=0;entryY=0.25;entryDx=0;entryDy=0;fontSize=11;strokeWidth=0.25;endSize=6;startSize=6;" edge="1" parent="1">
          <mxGeometry width="50" height="50" relative="1" as="geometry">
            <mxPoint x="95" y="690" as="sourcePoint" />
            <mxPoint x="295" y="690" as="targetPoint" />
          </mxGeometry>
        </mxCell>
        <mxCell id="JnshHDqUiIFZR_v37cdG-107" value="video_vs_n" style="edgeLabel;html=1;align=center;verticalAlign=middle;resizable=0;points=[];fontSize=11;" vertex="1" connectable="0" parent="JnshHDqUiIFZR_v37cdG-106">
          <mxGeometry x="-0.0571" relative="1" as="geometry">
            <mxPoint as="offset" />
          </mxGeometry>
        </mxCell>
        <mxCell id="JnshHDqUiIFZR_v37cdG-108" value="" style="endArrow=classic;html=1;rounded=0;entryX=0;entryY=0.25;entryDx=0;entryDy=0;fontSize=11;strokeWidth=1;endSize=6;startSize=6;" edge="1" parent="1">
          <mxGeometry width="50" height="50" relative="1" as="geometry">
            <mxPoint x="95" y="750" as="sourcePoint" />
            <mxPoint x="295" y="750" as="targetPoint" />
          </mxGeometry>
        </mxCell>
        <mxCell id="JnshHDqUiIFZR_v37cdG-109" value="data_in" style="edgeLabel;html=1;align=center;verticalAlign=middle;resizable=0;points=[];fontSize=11;" vertex="1" connectable="0" parent="JnshHDqUiIFZR_v37cdG-108">
          <mxGeometry x="-0.0428" y="1" relative="1" as="geometry">
            <mxPoint as="offset" />
          </mxGeometry>
        </mxCell>
        <mxCell id="JnshHDqUiIFZR_v37cdG-112" value="" style="endArrow=classic;html=1;rounded=0;entryX=0;entryY=0.25;entryDx=0;entryDy=0;fontSize=11;strokeWidth=0.25;endSize=6;startSize=6;" edge="1" parent="1">
          <mxGeometry width="50" height="50" relative="1" as="geometry">
            <mxPoint x="95" y="710" as="sourcePoint" />
            <mxPoint x="295" y="710" as="targetPoint" />
          </mxGeometry>
        </mxCell>
        <mxCell id="JnshHDqUiIFZR_v37cdG-113" value="video_hs_n" style="edgeLabel;html=1;align=center;verticalAlign=middle;resizable=0;points=[];fontSize=11;" vertex="1" connectable="0" parent="JnshHDqUiIFZR_v37cdG-112">
          <mxGeometry x="-0.0571" relative="1" as="geometry">
            <mxPoint as="offset" />
          </mxGeometry>
        </mxCell>
        <mxCell id="JnshHDqUiIFZR_v37cdG-114" value="" style="endArrow=classic;html=1;rounded=0;entryX=0;entryY=0.25;entryDx=0;entryDy=0;fontSize=11;strokeWidth=0.25;endSize=6;startSize=6;" edge="1" parent="1">
          <mxGeometry width="50" height="50" relative="1" as="geometry">
            <mxPoint x="95" y="730" as="sourcePoint" />
            <mxPoint x="295" y="730" as="targetPoint" />
          </mxGeometry>
        </mxCell>
        <mxCell id="JnshHDqUiIFZR_v37cdG-115" value="data_de" style="edgeLabel;html=1;align=center;verticalAlign=middle;resizable=0;points=[];fontSize=11;" vertex="1" connectable="0" parent="JnshHDqUiIFZR_v37cdG-114">
          <mxGeometry x="-0.0571" relative="1" as="geometry">
            <mxPoint as="offset" />
          </mxGeometry>
        </mxCell>
        <mxCell id="JnshHDqUiIFZR_v37cdG-119" value="" style="endArrow=none;html=1;rounded=0;" edge="1" parent="1">
          <mxGeometry width="50" height="50" relative="1" as="geometry">
            <mxPoint x="520" y="650" as="sourcePoint" />
            <mxPoint x="720" y="650" as="targetPoint" />
          </mxGeometry>
        </mxCell>
        <mxCell id="JnshHDqUiIFZR_v37cdG-121" value="symbol_col_cnt" style="edgeLabel;html=1;align=center;verticalAlign=middle;resizable=0;points=[];" vertex="1" connectable="0" parent="JnshHDqUiIFZR_v37cdG-119">
          <mxGeometry x="-0.0024" y="-1" relative="1" as="geometry">
            <mxPoint as="offset" />
          </mxGeometry>
        </mxCell>
        <mxCell id="JnshHDqUiIFZR_v37cdG-122" value="" style="endArrow=none;html=1;rounded=0;" edge="1" parent="1">
          <mxGeometry width="50" height="50" relative="1" as="geometry">
            <mxPoint x="520" y="680" as="sourcePoint" />
            <mxPoint x="720" y="680" as="targetPoint" />
          </mxGeometry>
        </mxCell>
        <mxCell id="JnshHDqUiIFZR_v37cdG-123" value="symbol_row_cnt" style="edgeLabel;html=1;align=center;verticalAlign=middle;resizable=0;points=[];" vertex="1" connectable="0" parent="JnshHDqUiIFZR_v37cdG-122">
          <mxGeometry x="-0.0024" y="-1" relative="1" as="geometry">
            <mxPoint as="offset" />
          </mxGeometry>
        </mxCell>
        <mxCell id="JnshHDqUiIFZR_v37cdG-124" value="" style="endArrow=none;html=1;rounded=0;" edge="1" parent="1">
          <mxGeometry width="50" height="50" relative="1" as="geometry">
            <mxPoint x="520" y="715" as="sourcePoint" />
            <mxPoint x="720" y="715" as="targetPoint" />
          </mxGeometry>
        </mxCell>
        <mxCell id="JnshHDqUiIFZR_v37cdG-125" value="symbol_binary_data" style="edgeLabel;html=1;align=center;verticalAlign=middle;resizable=0;points=[];" vertex="1" connectable="0" parent="JnshHDqUiIFZR_v37cdG-124">
          <mxGeometry x="-0.0024" y="-1" relative="1" as="geometry">
            <mxPoint as="offset" />
          </mxGeometry>
        </mxCell>
        <mxCell id="JnshHDqUiIFZR_v37cdG-128" value="" style="endArrow=none;html=1;rounded=0;strokeWidth=0.25;" edge="1" parent="1">
          <mxGeometry width="50" height="50" relative="1" as="geometry">
            <mxPoint x="520" y="790" as="sourcePoint" />
            <mxPoint x="720" y="790" as="targetPoint" />
          </mxGeometry>
        </mxCell>
        <mxCell id="JnshHDqUiIFZR_v37cdG-129" value="video_refresh" style="edgeLabel;html=1;align=center;verticalAlign=middle;resizable=0;points=[];" vertex="1" connectable="0" parent="JnshHDqUiIFZR_v37cdG-128">
          <mxGeometry x="-0.0024" y="-1" relative="1" as="geometry">
            <mxPoint as="offset" />
          </mxGeometry>
        </mxCell>
        <mxCell id="JnshHDqUiIFZR_v37cdG-132" value="" style="endArrow=none;html=1;rounded=0;strokeWidth=0.25;" edge="1" parent="1">
          <mxGeometry width="50" height="50" relative="1" as="geometry">
            <mxPoint x="565" y="880" as="sourcePoint" />
            <mxPoint x="720" y="880" as="targetPoint" />
          </mxGeometry>
        </mxCell>
        <mxCell id="JnshHDqUiIFZR_v37cdG-133" value="calc_start" style="edgeLabel;html=1;align=center;verticalAlign=middle;resizable=0;points=[];" vertex="1" connectable="0" parent="JnshHDqUiIFZR_v37cdG-132">
          <mxGeometry x="-0.0024" y="-1" relative="1" as="geometry">
            <mxPoint as="offset" />
          </mxGeometry>
        </mxCell>
        <mxCell id="JnshHDqUiIFZR_v37cdG-134" value="" style="rounded=0;whiteSpace=wrap;html=1;fillColor=#cdeb8b;strokeColor=#36393d;" vertex="1" parent="1">
          <mxGeometry x="735" y="655" width="147.5" height="50" as="geometry" />
        </mxCell>
        <mxCell id="JnshHDqUiIFZR_v37cdG-135" value="SYMBOL_RECOGNIZE0" style="text;whiteSpace=wrap;" vertex="1" parent="1">
          <mxGeometry x="740" y="680" width="145" height="35" as="geometry" />
        </mxCell>
        <mxCell id="JnshHDqUiIFZR_v37cdG-136" value="" style="rounded=0;whiteSpace=wrap;html=1;fillColor=#cdeb8b;strokeColor=#36393d;" vertex="1" parent="1">
          <mxGeometry x="733.75" y="730" width="147.5" height="50" as="geometry" />
        </mxCell>
        <mxCell id="JnshHDqUiIFZR_v37cdG-137" value="SYMBOL_RECOGNIZE1" style="text;whiteSpace=wrap;" vertex="1" parent="1">
          <mxGeometry x="735" y="755" width="145" height="35" as="geometry" />
        </mxCell>
        <mxCell id="JnshHDqUiIFZR_v37cdG-138" value="" style="rounded=0;whiteSpace=wrap;html=1;fillColor=#cdeb8b;strokeColor=#36393d;" vertex="1" parent="1">
          <mxGeometry x="732.5" y="795" width="147.5" height="50" as="geometry" />
        </mxCell>
        <mxCell id="JnshHDqUiIFZR_v37cdG-139" value="SYMBOL_RECOGNIZE2" style="text;whiteSpace=wrap;" vertex="1" parent="1">
          <mxGeometry x="737.5" y="820" width="145" height="35" as="geometry" />
        </mxCell>
        <mxCell id="JnshHDqUiIFZR_v37cdG-143" value="" style="rounded=0;whiteSpace=wrap;html=1;fillColor=#cdeb8b;strokeColor=#36393d;" vertex="1" parent="1">
          <mxGeometry x="732.5" y="870" width="147.5" height="50" as="geometry" />
        </mxCell>
        <mxCell id="JnshHDqUiIFZR_v37cdG-144" value="SYMBOL_RECOGNIZE3" style="text;whiteSpace=wrap;" vertex="1" parent="1">
          <mxGeometry x="737.5" y="895" width="145" height="35" as="geometry" />
        </mxCell>
        <mxCell id="JnshHDqUiIFZR_v37cdG-145" value="" style="endArrow=classic;html=1;rounded=0;endFill=1;" edge="1" parent="1">
          <mxGeometry width="50" height="50" relative="1" as="geometry">
            <mxPoint x="895" y="675" as="sourcePoint" />
            <mxPoint x="1215" y="675" as="targetPoint" />
          </mxGeometry>
        </mxCell>
        <mxCell id="JnshHDqUiIFZR_v37cdG-146" value="symbol_detect_result" style="edgeLabel;html=1;align=center;verticalAlign=middle;resizable=0;points=[];" vertex="1" connectable="0" parent="JnshHDqUiIFZR_v37cdG-145">
          <mxGeometry x="-0.0024" y="-1" relative="1" as="geometry">
            <mxPoint as="offset" />
          </mxGeometry>
        </mxCell>
        <mxCell id="JnshHDqUiIFZR_v37cdG-147" value="" style="endArrow=classic;html=1;rounded=0;strokeWidth=0.25;endFill=1;" edge="1" parent="1">
          <mxGeometry width="50" height="50" relative="1" as="geometry">
            <mxPoint x="895" y="730" as="sourcePoint" />
            <mxPoint x="1215" y="730" as="targetPoint" />
          </mxGeometry>
        </mxCell>
        <mxCell id="JnshHDqUiIFZR_v37cdG-148" value="symbol_result_valid" style="edgeLabel;html=1;align=center;verticalAlign=middle;resizable=0;points=[];" vertex="1" connectable="0" parent="JnshHDqUiIFZR_v37cdG-147">
          <mxGeometry x="-0.0024" y="-1" relative="1" as="geometry">
            <mxPoint as="offset" />
          </mxGeometry>
        </mxCell>
        <mxCell id="JnshHDqUiIFZR_v37cdG-151" value="DHA_SYMBOL_COMPARE" style="text;whiteSpace=wrap;fontStyle=1;fontSize=14;" vertex="1" parent="1">
          <mxGeometry x="522.5" y="975" width="215" height="35" as="geometry" />
        </mxCell>
      </root>
    </mxGraphModel>
  </diagram>
  <diagram id="goPcWmEuROyimmRQsrON" name="Page-2">
    <mxGraphModel dx="2695" dy="1269" grid="1" gridSize="10" guides="1" tooltips="1" connect="1" arrows="1" fold="1" page="1" pageScale="1" pageWidth="827" pageHeight="1169" math="0" shadow="0">
      <root>
        <mxCell id="0" />
        <mxCell id="1" parent="0" />
        <mxCell id="vCsGNLxAr_4zbirKkCGF-1" value="" style="rounded=0;whiteSpace=wrap;html=1;fillColor=#f5f5f5;strokeColor=#000000;strokeWidth=3;gradientColor=#b3b3b3;" vertex="1" parent="1">
          <mxGeometry x="220" y="565" width="745" height="440" as="geometry" />
        </mxCell>
        <mxCell id="vCsGNLxAr_4zbirKkCGF-2" value="" style="rounded=0;whiteSpace=wrap;html=1;fillColor=#f5f5f5;strokeColor=#000000;strokeWidth=3;gradientColor=#b3b3b3;" vertex="1" parent="1">
          <mxGeometry x="225" y="80" width="945" height="440" as="geometry" />
        </mxCell>
        <mxCell id="vCsGNLxAr_4zbirKkCGF-3" value="" style="endArrow=classic;html=1;rounded=0;fontSize=11;strokeWidth=0.25;endSize=6;startSize=6;" edge="1" parent="1">
          <mxGeometry width="50" height="50" relative="1" as="geometry">
            <mxPoint x="80" y="480" as="sourcePoint" />
            <mxPoint x="225" y="480" as="targetPoint" />
          </mxGeometry>
        </mxCell>
        <mxCell id="vCsGNLxAr_4zbirKkCGF-4" value="clk" style="edgeLabel;html=1;align=center;verticalAlign=middle;resizable=0;points=[];fontSize=11;" vertex="1" connectable="0" parent="vCsGNLxAr_4zbirKkCGF-3">
          <mxGeometry x="-0.0143" relative="1" as="geometry">
            <mxPoint as="offset" />
          </mxGeometry>
        </mxCell>
        <mxCell id="vCsGNLxAr_4zbirKkCGF-5" value="" style="endArrow=classic;html=1;rounded=0;fontSize=11;strokeWidth=0.25;endSize=6;startSize=6;" edge="1" parent="1">
          <mxGeometry width="50" height="50" relative="1" as="geometry">
            <mxPoint x="80" y="500" as="sourcePoint" />
            <mxPoint x="225" y="500" as="targetPoint" />
          </mxGeometry>
        </mxCell>
        <mxCell id="vCsGNLxAr_4zbirKkCGF-6" value="rst_n" style="edgeLabel;html=1;align=center;verticalAlign=middle;resizable=0;points=[];fontSize=11;" vertex="1" connectable="0" parent="vCsGNLxAr_4zbirKkCGF-5">
          <mxGeometry x="-0.0286" relative="1" as="geometry">
            <mxPoint as="offset" />
          </mxGeometry>
        </mxCell>
        <mxCell id="vCsGNLxAr_4zbirKkCGF-7" value="" style="endArrow=classic;html=1;rounded=0;entryX=0;entryY=0.25;entryDx=0;entryDy=0;fontSize=11;strokeWidth=1;endSize=6;startSize=6;" edge="1" parent="1">
          <mxGeometry width="50" height="50" relative="1" as="geometry">
            <mxPoint x="110" y="162" as="sourcePoint" />
            <mxPoint x="270" y="162" as="targetPoint" />
          </mxGeometry>
        </mxCell>
        <mxCell id="vCsGNLxAr_4zbirKkCGF-8" value="col_cnt" style="edgeLabel;html=1;align=center;verticalAlign=middle;resizable=0;points=[];fontSize=11;" vertex="1" connectable="0" parent="vCsGNLxAr_4zbirKkCGF-7">
          <mxGeometry x="-0.0143" y="-1" relative="1" as="geometry">
            <mxPoint as="offset" />
          </mxGeometry>
        </mxCell>
        <mxCell id="vCsGNLxAr_4zbirKkCGF-9" value="" style="endArrow=classic;html=1;rounded=0;entryX=0;entryY=0.25;entryDx=0;entryDy=0;fontSize=11;strokeWidth=1;endSize=6;startSize=6;" edge="1" parent="1">
          <mxGeometry width="50" height="50" relative="1" as="geometry">
            <mxPoint x="110" y="182" as="sourcePoint" />
            <mxPoint x="270" y="182" as="targetPoint" />
          </mxGeometry>
        </mxCell>
        <mxCell id="vCsGNLxAr_4zbirKkCGF-10" value="row_cnt" style="edgeLabel;html=1;align=center;verticalAlign=middle;resizable=0;points=[];fontSize=11;" vertex="1" connectable="0" parent="vCsGNLxAr_4zbirKkCGF-9">
          <mxGeometry x="-0.0428" y="1" relative="1" as="geometry">
            <mxPoint as="offset" />
          </mxGeometry>
        </mxCell>
        <mxCell id="vCsGNLxAr_4zbirKkCGF-11" value="" style="endArrow=classic;html=1;rounded=0;entryX=0;entryY=0.25;entryDx=0;entryDy=0;fontSize=11;strokeWidth=0.25;endSize=6;startSize=6;" edge="1" parent="1">
          <mxGeometry width="50" height="50" relative="1" as="geometry">
            <mxPoint x="110" y="122" as="sourcePoint" />
            <mxPoint x="270" y="122" as="targetPoint" />
          </mxGeometry>
        </mxCell>
        <mxCell id="vCsGNLxAr_4zbirKkCGF-12" value="frame_sync" style="edgeLabel;html=1;align=center;verticalAlign=middle;resizable=0;points=[];fontSize=11;" vertex="1" connectable="0" parent="vCsGNLxAr_4zbirKkCGF-11">
          <mxGeometry x="-0.0571" relative="1" as="geometry">
            <mxPoint as="offset" />
          </mxGeometry>
        </mxCell>
        <mxCell id="vCsGNLxAr_4zbirKkCGF-13" value="spi_ram_rd_data" style="endArrow=classic;html=1;rounded=0;entryX=0;entryY=0.25;entryDx=0;entryDy=0;fontSize=11;strokeWidth=1;endSize=6;startSize=6;" edge="1" parent="1">
          <mxGeometry x="0.0084" width="50" height="50" relative="1" as="geometry">
            <mxPoint x="80" y="415" as="sourcePoint" />
            <mxPoint x="270" y="415" as="targetPoint" />
            <mxPoint as="offset" />
          </mxGeometry>
        </mxCell>
        <mxCell id="vCsGNLxAr_4zbirKkCGF-14" value="" style="endArrow=classic;html=1;rounded=0;entryX=0;entryY=0.25;entryDx=0;entryDy=0;fontSize=11;strokeWidth=1;endSize=6;startSize=6;" edge="1" parent="1">
          <mxGeometry width="50" height="50" relative="1" as="geometry">
            <mxPoint x="80" y="390" as="sourcePoint" />
            <mxPoint x="270" y="390" as="targetPoint" />
          </mxGeometry>
        </mxCell>
        <mxCell id="vCsGNLxAr_4zbirKkCGF-15" value="spi_ram_rd_addr" style="edgeLabel;html=1;align=center;verticalAlign=middle;resizable=0;points=[];fontSize=11;" vertex="1" connectable="0" parent="vCsGNLxAr_4zbirKkCGF-14">
          <mxGeometry x="-0.0143" relative="1" as="geometry">
            <mxPoint as="offset" />
          </mxGeometry>
        </mxCell>
        <mxCell id="vCsGNLxAr_4zbirKkCGF-16" value="" style="rounded=0;whiteSpace=wrap;html=1;fillColor=#d5e8d4;strokeColor=#82b366;" vertex="1" parent="1">
          <mxGeometry x="270" y="95" width="180" height="205" as="geometry" />
        </mxCell>
        <mxCell id="vCsGNLxAr_4zbirKkCGF-17" value="" style="rounded=0;whiteSpace=wrap;html=1;fillColor=#fff2cc;strokeColor=#d6b656;" vertex="1" parent="1">
          <mxGeometry x="270" y="315" width="180" height="170" as="geometry" />
        </mxCell>
        <mxCell id="vCsGNLxAr_4zbirKkCGF-18" value="DHA_PARAMETER_COMPARE" style="text;whiteSpace=wrap;fontStyle=1;fontSize=14;" vertex="1" parent="1">
          <mxGeometry x="525" y="490" width="215" height="35" as="geometry" />
        </mxCell>
        <mxCell id="vCsGNLxAr_4zbirKkCGF-19" value="MONITOR_LINE_DETECT" style="text;whiteSpace=wrap;" vertex="1" parent="1">
          <mxGeometry x="290" y="275" width="155" height="35" as="geometry" />
        </mxCell>
        <mxCell id="vCsGNLxAr_4zbirKkCGF-20" value="" style="endArrow=classic;html=1;rounded=0;entryX=0;entryY=0.25;entryDx=0;entryDy=0;fontSize=11;strokeWidth=1;endSize=6;startSize=6;" edge="1" parent="1">
          <mxGeometry width="50" height="50" relative="1" as="geometry">
            <mxPoint x="110" y="142" as="sourcePoint" />
            <mxPoint x="270" y="142" as="targetPoint" />
          </mxGeometry>
        </mxCell>
        <mxCell id="vCsGNLxAr_4zbirKkCGF-21" value="Pixel_data" style="edgeLabel;html=1;align=center;verticalAlign=middle;resizable=0;points=[];fontSize=11;" vertex="1" connectable="0" parent="vCsGNLxAr_4zbirKkCGF-20">
          <mxGeometry x="-0.0428" y="1" relative="1" as="geometry">
            <mxPoint as="offset" />
          </mxGeometry>
        </mxCell>
        <mxCell id="vCsGNLxAr_4zbirKkCGF-22" value="" style="endArrow=classic;html=1;rounded=0;entryX=0;entryY=0.25;entryDx=0;entryDy=0;fontSize=11;strokeWidth=1;endSize=6;startSize=6;" edge="1" parent="1">
          <mxGeometry width="50" height="50" relative="1" as="geometry">
            <mxPoint x="110" y="202" as="sourcePoint" />
            <mxPoint x="270" y="202" as="targetPoint" />
          </mxGeometry>
        </mxCell>
        <mxCell id="vCsGNLxAr_4zbirKkCGF-23" value="rd_addr" style="edgeLabel;html=1;align=center;verticalAlign=middle;resizable=0;points=[];fontSize=11;" vertex="1" connectable="0" parent="vCsGNLxAr_4zbirKkCGF-22">
          <mxGeometry x="-0.0428" y="1" relative="1" as="geometry">
            <mxPoint as="offset" />
          </mxGeometry>
        </mxCell>
        <mxCell id="vCsGNLxAr_4zbirKkCGF-24" value="DHA_SPI_MONITOR_LINE_UNPACK" style="text;whiteSpace=wrap;fontSize=10;" vertex="1" parent="1">
          <mxGeometry x="275" y="460" width="230" height="35" as="geometry" />
        </mxCell>
        <mxCell id="vCsGNLxAr_4zbirKkCGF-25" value="spi_ram_rd_valid" style="endArrow=classic;html=1;rounded=0;entryX=0;entryY=0.25;entryDx=0;entryDy=0;fontSize=11;strokeWidth=0.25;endSize=6;startSize=6;" edge="1" parent="1">
          <mxGeometry x="0.0084" width="50" height="50" relative="1" as="geometry">
            <mxPoint x="80" y="365" as="sourcePoint" />
            <mxPoint x="270" y="365" as="targetPoint" />
            <mxPoint as="offset" />
          </mxGeometry>
        </mxCell>
        <mxCell id="vCsGNLxAr_4zbirKkCGF-26" value="pfd_en" style="endArrow=classic;html=1;rounded=0;entryX=0;entryY=0.25;entryDx=0;entryDy=0;fontSize=11;strokeWidth=0.25;endSize=6;startSize=6;" edge="1" parent="1">
          <mxGeometry x="0.0084" width="50" height="50" relative="1" as="geometry">
            <mxPoint x="80" y="340" as="sourcePoint" />
            <mxPoint x="270" y="340" as="targetPoint" />
            <mxPoint as="offset" />
          </mxGeometry>
        </mxCell>
        <mxCell id="vCsGNLxAr_4zbirKkCGF-27" value="" style="endArrow=classic;html=1;rounded=0;fontSize=11;strokeWidth=0.25;endSize=6;startSize=6;" edge="1" parent="1">
          <mxGeometry width="50" height="50" relative="1" as="geometry">
            <mxPoint x="450" y="170" as="sourcePoint" />
            <mxPoint x="830" y="170" as="targetPoint" />
          </mxGeometry>
        </mxCell>
        <mxCell id="vCsGNLxAr_4zbirKkCGF-28" value="monitor_line_finish" style="edgeLabel;html=1;align=center;verticalAlign=middle;resizable=0;points=[];fontSize=11;" vertex="1" connectable="0" parent="vCsGNLxAr_4zbirKkCGF-27">
          <mxGeometry x="-0.0571" relative="1" as="geometry">
            <mxPoint as="offset" />
          </mxGeometry>
        </mxCell>
        <mxCell id="vCsGNLxAr_4zbirKkCGF-29" value="" style="endArrow=classic;html=1;rounded=0;fontSize=11;strokeWidth=1;endSize=6;startSize=6;" edge="1" parent="1">
          <mxGeometry width="50" height="50" relative="1" as="geometry">
            <mxPoint x="450" y="200" as="sourcePoint" />
            <mxPoint x="830" y="200" as="targetPoint" />
          </mxGeometry>
        </mxCell>
        <mxCell id="vCsGNLxAr_4zbirKkCGF-30" value="pixel_error_para" style="edgeLabel;html=1;align=center;verticalAlign=middle;resizable=0;points=[];fontSize=11;" vertex="1" connectable="0" parent="vCsGNLxAr_4zbirKkCGF-29">
          <mxGeometry x="-0.0571" relative="1" as="geometry">
            <mxPoint as="offset" />
          </mxGeometry>
        </mxCell>
        <mxCell id="vCsGNLxAr_4zbirKkCGF-31" value="" style="endArrow=classic;html=1;rounded=0;fontSize=11;strokeWidth=1;endSize=6;startSize=6;" edge="1" parent="1">
          <mxGeometry width="50" height="50" relative="1" as="geometry">
            <mxPoint x="450" y="230" as="sourcePoint" />
            <mxPoint x="830" y="230" as="targetPoint" />
          </mxGeometry>
        </mxCell>
        <mxCell id="vCsGNLxAr_4zbirKkCGF-32" value="rd_data" style="edgeLabel;html=1;align=center;verticalAlign=middle;resizable=0;points=[];fontSize=11;" vertex="1" connectable="0" parent="vCsGNLxAr_4zbirKkCGF-31">
          <mxGeometry x="-0.0571" relative="1" as="geometry">
            <mxPoint as="offset" />
          </mxGeometry>
        </mxCell>
        <mxCell id="vCsGNLxAr_4zbirKkCGF-33" value="para_others_valid" style="endArrow=classic;html=1;rounded=0;fontSize=11;strokeWidth=5;endSize=6;startSize=6;" edge="1" parent="1">
          <mxGeometry x="0.5789" y="10" width="50" height="50" relative="1" as="geometry">
            <mxPoint x="450" y="470" as="sourcePoint" />
            <mxPoint x="830" y="470" as="targetPoint" />
            <mxPoint as="offset" />
          </mxGeometry>
        </mxCell>
        <mxCell id="vCsGNLxAr_4zbirKkCGF-34" value="" style="group" vertex="1" connectable="0" parent="1">
          <mxGeometry x="830" y="95" width="175" height="400" as="geometry" />
        </mxCell>
        <mxCell id="vCsGNLxAr_4zbirKkCGF-35" value="" style="rounded=0;whiteSpace=wrap;html=1;fillColor=#f8cecc;strokeColor=#b85450;" vertex="1" parent="vCsGNLxAr_4zbirKkCGF-34">
          <mxGeometry width="175" height="395" as="geometry" />
        </mxCell>
        <mxCell id="vCsGNLxAr_4zbirKkCGF-36" value="DHA_COMPARE_FINAL" style="text;whiteSpace=wrap;" vertex="1" parent="vCsGNLxAr_4zbirKkCGF-34">
          <mxGeometry x="15" y="365" width="160" height="35" as="geometry" />
        </mxCell>
        <mxCell id="vCsGNLxAr_4zbirKkCGF-37" value="" style="group" vertex="1" connectable="0" parent="1">
          <mxGeometry x="550" y="250" width="130" height="120" as="geometry" />
        </mxCell>
        <mxCell id="vCsGNLxAr_4zbirKkCGF-38" value="" style="group" vertex="1" connectable="0" parent="vCsGNLxAr_4zbirKkCGF-37">
          <mxGeometry y="55" width="127.5" height="55" as="geometry" />
        </mxCell>
        <mxCell id="vCsGNLxAr_4zbirKkCGF-39" value="" style="rounded=0;whiteSpace=wrap;html=1;fillColor=#fff2cc;strokeColor=#d6b656;" vertex="1" parent="vCsGNLxAr_4zbirKkCGF-38">
          <mxGeometry width="120" height="47.14285714285714" as="geometry" />
        </mxCell>
        <mxCell id="vCsGNLxAr_4zbirKkCGF-40" value="DHA_AS_FILTER" style="text;whiteSpace=wrap;" vertex="1" parent="vCsGNLxAr_4zbirKkCGF-38">
          <mxGeometry x="7.5" y="21.64" width="120" height="27.5" as="geometry" />
        </mxCell>
        <mxCell id="vCsGNLxAr_4zbirKkCGF-41" value="para_Airspeed" style="endArrow=classic;html=1;rounded=0;fontSize=11;strokeWidth=1;endSize=6;startSize=6;" edge="1" parent="vCsGNLxAr_4zbirKkCGF-37">
          <mxGeometry y="15" width="50" height="50" relative="1" as="geometry">
            <mxPoint x="-100" y="80" as="sourcePoint" />
            <mxPoint y="80" as="targetPoint" />
            <mxPoint as="offset" />
          </mxGeometry>
        </mxCell>
        <mxCell id="vCsGNLxAr_4zbirKkCGF-42" value="para_others_dout" style="endArrow=classic;html=1;rounded=0;fontSize=11;strokeWidth=5;endSize=6;startSize=6;" edge="1" parent="1">
          <mxGeometry x="0.5789" y="10" width="50" height="50" relative="1" as="geometry">
            <mxPoint x="450" y="440" as="sourcePoint" />
            <mxPoint x="830" y="440" as="targetPoint" />
            <mxPoint as="offset" />
          </mxGeometry>
        </mxCell>
        <mxCell id="vCsGNLxAr_4zbirKkCGF-43" value="" style="group" vertex="1" connectable="0" parent="1">
          <mxGeometry x="450" y="365" width="320" height="70" as="geometry" />
        </mxCell>
        <mxCell id="vCsGNLxAr_4zbirKkCGF-44" value="" style="group" vertex="1" connectable="0" parent="vCsGNLxAr_4zbirKkCGF-43">
          <mxGeometry x="98.75" width="130" height="70" as="geometry" />
        </mxCell>
        <mxCell id="vCsGNLxAr_4zbirKkCGF-45" value="" style="rounded=0;whiteSpace=wrap;html=1;fillColor=#fff2cc;strokeColor=#d6b656;" vertex="1" parent="vCsGNLxAr_4zbirKkCGF-44">
          <mxGeometry y="7.5" width="121.25" height="45" as="geometry" />
        </mxCell>
        <mxCell id="vCsGNLxAr_4zbirKkCGF-46" value="DHA_ALT_FILTER" style="text;whiteSpace=wrap;" vertex="1" parent="vCsGNLxAr_4zbirKkCGF-44">
          <mxGeometry x="5" y="27.5" width="125" height="35" as="geometry" />
        </mxCell>
        <mxCell id="vCsGNLxAr_4zbirKkCGF-47" value="para_Altitude" style="endArrow=classic;html=1;rounded=0;fontSize=11;strokeWidth=1;endSize=6;startSize=6;" edge="1" parent="vCsGNLxAr_4zbirKkCGF-43">
          <mxGeometry y="15" width="50" height="50" relative="1" as="geometry">
            <mxPoint y="29.659999999999968" as="sourcePoint" />
            <mxPoint x="100" y="29.659999999999968" as="targetPoint" />
            <mxPoint as="offset" />
          </mxGeometry>
        </mxCell>
        <mxCell id="vCsGNLxAr_4zbirKkCGF-48" value="para_Airspeed_out" style="endArrow=classic;html=1;rounded=0;fontSize=11;strokeWidth=1;endSize=6;startSize=6;" edge="1" parent="1">
          <mxGeometry y="15" width="50" height="50" relative="1" as="geometry">
            <mxPoint x="670" y="330" as="sourcePoint" />
            <mxPoint x="830" y="330" as="targetPoint" />
            <mxPoint as="offset" />
          </mxGeometry>
        </mxCell>
        <mxCell id="vCsGNLxAr_4zbirKkCGF-49" value="para_Altitude_out" style="endArrow=classic;html=1;rounded=0;fontSize=11;strokeWidth=1;endSize=6;startSize=6;" edge="1" parent="1">
          <mxGeometry y="15" width="50" height="50" relative="1" as="geometry">
            <mxPoint x="670" y="395" as="sourcePoint" />
            <mxPoint x="830" y="395" as="targetPoint" />
            <mxPoint as="offset" />
          </mxGeometry>
        </mxCell>
        <mxCell id="vCsGNLxAr_4zbirKkCGF-50" value="" style="edgeStyle=segmentEdgeStyle;endArrow=none;html=1;curved=0;rounded=0;endSize=8;startSize=8;endFill=0;" edge="1" parent="1">
          <mxGeometry width="50" height="50" relative="1" as="geometry">
            <mxPoint x="1005" y="127" as="sourcePoint" />
            <mxPoint x="110" y="202" as="targetPoint" />
            <Array as="points">
              <mxPoint x="1135" y="127" />
              <mxPoint x="1135" y="42" />
              <mxPoint x="85" y="42" />
              <mxPoint x="85" y="202" />
            </Array>
          </mxGeometry>
        </mxCell>
        <mxCell id="vCsGNLxAr_4zbirKkCGF-51" value="rd_addr" style="edgeLabel;html=1;align=center;verticalAlign=middle;resizable=0;points=[];" vertex="1" connectable="0" parent="vCsGNLxAr_4zbirKkCGF-50">
          <mxGeometry x="-0.9284" relative="1" as="geometry">
            <mxPoint x="26" as="offset" />
          </mxGeometry>
        </mxCell>
        <mxCell id="vCsGNLxAr_4zbirKkCGF-52" value="" style="fontColor=#0066CC;verticalAlign=top;verticalLabelPosition=bottom;labelPosition=center;align=center;html=1;outlineConnect=0;fillColor=#CCCCCC;strokeColor=#6881B3;gradientColor=none;gradientDirection=north;strokeWidth=2;shape=mxgraph.networks.monitor;" vertex="1" parent="1">
          <mxGeometry x="-22.5" y="135" width="80" height="60" as="geometry" />
        </mxCell>
        <mxCell id="vCsGNLxAr_4zbirKkCGF-53" value="" style="pointerEvents=1;shadow=0;dashed=0;html=1;strokeColor=none;fillColor=#4495D1;labelPosition=center;verticalLabelPosition=bottom;verticalAlign=top;align=center;outlineConnect=0;shape=mxgraph.veeam.ram;" vertex="1" parent="1">
          <mxGeometry x="-20" y="370" width="75" height="45" as="geometry" />
        </mxCell>
        <mxCell id="vCsGNLxAr_4zbirKkCGF-54" value="upload" style="endArrow=classic;html=1;rounded=0;fontSize=11;strokeWidth=5;endSize=6;startSize=6;" edge="1" parent="1">
          <mxGeometry y="10" width="50" height="50" relative="1" as="geometry">
            <mxPoint x="1005" y="280" as="sourcePoint" />
            <mxPoint x="1215" y="280" as="targetPoint" />
            <mxPoint as="offset" />
          </mxGeometry>
        </mxCell>
        <mxCell id="vCsGNLxAr_4zbirKkCGF-55" value="" style="endArrow=classic;html=1;rounded=0;fontSize=11;strokeWidth=0.25;endSize=6;startSize=6;" edge="1" parent="1">
          <mxGeometry width="50" height="50" relative="1" as="geometry">
            <mxPoint x="1005" y="330" as="sourcePoint" />
            <mxPoint x="1210" y="330" as="targetPoint" />
          </mxGeometry>
        </mxCell>
        <mxCell id="vCsGNLxAr_4zbirKkCGF-56" value="upload_finish" style="edgeLabel;html=1;align=center;verticalAlign=middle;resizable=0;points=[];fontSize=11;" vertex="1" connectable="0" parent="vCsGNLxAr_4zbirKkCGF-55">
          <mxGeometry x="-0.0571" relative="1" as="geometry">
            <mxPoint as="offset" />
          </mxGeometry>
        </mxCell>
        <mxCell id="vCsGNLxAr_4zbirKkCGF-57" value="" style="endArrow=classic;html=1;rounded=0;fontSize=11;strokeWidth=1;endSize=6;startSize=6;" edge="1" parent="1">
          <mxGeometry width="50" height="50" relative="1" as="geometry">
            <mxPoint x="1005" y="230" as="sourcePoint" />
            <mxPoint x="1210" y="230" as="targetPoint" />
          </mxGeometry>
        </mxCell>
        <mxCell id="vCsGNLxAr_4zbirKkCGF-58" value="para_shut_upload" style="edgeLabel;html=1;align=center;verticalAlign=middle;resizable=0;points=[];fontSize=11;" vertex="1" connectable="0" parent="vCsGNLxAr_4zbirKkCGF-57">
          <mxGeometry x="-0.0571" relative="1" as="geometry">
            <mxPoint as="offset" />
          </mxGeometry>
        </mxCell>
        <mxCell id="vCsGNLxAr_4zbirKkCGF-59" value="" style="endArrow=classic;html=1;rounded=0;fontSize=11;strokeWidth=1;endSize=6;startSize=6;" edge="1" parent="1">
          <mxGeometry width="50" height="50" relative="1" as="geometry">
            <mxPoint x="1005" y="205" as="sourcePoint" />
            <mxPoint x="1210" y="205" as="targetPoint" />
          </mxGeometry>
        </mxCell>
        <mxCell id="vCsGNLxAr_4zbirKkCGF-60" value="para_err_upload" style="edgeLabel;html=1;align=center;verticalAlign=middle;resizable=0;points=[];fontSize=11;" vertex="1" connectable="0" parent="vCsGNLxAr_4zbirKkCGF-59">
          <mxGeometry x="-0.0571" relative="1" as="geometry">
            <mxPoint as="offset" />
          </mxGeometry>
        </mxCell>
        <mxCell id="vCsGNLxAr_4zbirKkCGF-61" value="" style="rounded=0;whiteSpace=wrap;html=1;fillColor=#f8cecc;strokeColor=#b85450;" vertex="1" parent="1">
          <mxGeometry x="1215" y="137.5" width="210" height="862.5" as="geometry" />
        </mxCell>
        <mxCell id="vCsGNLxAr_4zbirKkCGF-62" value="DHA_SHUTDOWN_AND_UPLOAD" style="text;whiteSpace=wrap;" vertex="1" parent="1">
          <mxGeometry x="1220" y="970" width="215" height="35" as="geometry" />
        </mxCell>
        <mxCell id="vCsGNLxAr_4zbirKkCGF-63" value="" style="rounded=0;whiteSpace=wrap;html=1;fillColor=#d5e8d4;strokeColor=#82b366;" vertex="1" parent="1">
          <mxGeometry x="720" y="605" width="175" height="355" as="geometry" />
        </mxCell>
        <mxCell id="vCsGNLxAr_4zbirKkCGF-64" value="SYMBOL_MATCH_TOP" style="text;whiteSpace=wrap;" vertex="1" parent="1">
          <mxGeometry x="730" y="935" width="155" height="35" as="geometry" />
        </mxCell>
        <mxCell id="vCsGNLxAr_4zbirKkCGF-65" value="" style="group" vertex="1" connectable="0" parent="1">
          <mxGeometry x="265" y="590" width="255" height="370" as="geometry" />
        </mxCell>
        <mxCell id="vCsGNLxAr_4zbirKkCGF-66" value="" style="group" vertex="1" connectable="0" parent="vCsGNLxAr_4zbirKkCGF-65">
          <mxGeometry x="15" y="35" width="240" height="335" as="geometry" />
        </mxCell>
        <mxCell id="vCsGNLxAr_4zbirKkCGF-67" value="" style="rounded=0;whiteSpace=wrap;html=1;fillColor=#d5e8d4;strokeColor=#82b366;" vertex="1" parent="vCsGNLxAr_4zbirKkCGF-66">
          <mxGeometry x="-15" y="-5" width="255" height="330" as="geometry" />
        </mxCell>
        <mxCell id="vCsGNLxAr_4zbirKkCGF-68" value="VIDEO_PREPROCESSING" style="text;whiteSpace=wrap;" vertex="1" parent="vCsGNLxAr_4zbirKkCGF-66">
          <mxGeometry x="-2.5" y="290" width="155" height="35" as="geometry" />
        </mxCell>
        <mxCell id="vCsGNLxAr_4zbirKkCGF-69" value="" style="rounded=0;whiteSpace=wrap;html=1;fillColor=#cdeb8b;strokeColor=#36393d;" vertex="1" parent="vCsGNLxAr_4zbirKkCGF-66">
          <mxGeometry x="15" y="45" width="147.5" height="200" as="geometry" />
        </mxCell>
        <mxCell id="vCsGNLxAr_4zbirKkCGF-70" value="RGB2BINARY_SYMBOL" style="text;whiteSpace=wrap;" vertex="1" parent="vCsGNLxAr_4zbirKkCGF-66">
          <mxGeometry x="18.75" y="220" width="140" height="35" as="geometry" />
        </mxCell>
        <mxCell id="vCsGNLxAr_4zbirKkCGF-71" value="" style="endArrow=classic;html=1;rounded=0;fontSize=11;strokeWidth=0.25;endSize=6;startSize=6;" edge="1" parent="1">
          <mxGeometry width="50" height="50" relative="1" as="geometry">
            <mxPoint x="75" y="970" as="sourcePoint" />
            <mxPoint x="220" y="970" as="targetPoint" />
          </mxGeometry>
        </mxCell>
        <mxCell id="vCsGNLxAr_4zbirKkCGF-72" value="clk" style="edgeLabel;html=1;align=center;verticalAlign=middle;resizable=0;points=[];fontSize=11;" vertex="1" connectable="0" parent="vCsGNLxAr_4zbirKkCGF-71">
          <mxGeometry x="-0.0143" relative="1" as="geometry">
            <mxPoint as="offset" />
          </mxGeometry>
        </mxCell>
        <mxCell id="vCsGNLxAr_4zbirKkCGF-73" value="" style="endArrow=classic;html=1;rounded=0;fontSize=11;strokeWidth=0.25;endSize=6;startSize=6;" edge="1" parent="1">
          <mxGeometry width="50" height="50" relative="1" as="geometry">
            <mxPoint x="75" y="990" as="sourcePoint" />
            <mxPoint x="220" y="990" as="targetPoint" />
          </mxGeometry>
        </mxCell>
        <mxCell id="vCsGNLxAr_4zbirKkCGF-74" value="rst_n" style="edgeLabel;html=1;align=center;verticalAlign=middle;resizable=0;points=[];fontSize=11;" vertex="1" connectable="0" parent="vCsGNLxAr_4zbirKkCGF-73">
          <mxGeometry x="-0.0286" relative="1" as="geometry">
            <mxPoint as="offset" />
          </mxGeometry>
        </mxCell>
        <mxCell id="vCsGNLxAr_4zbirKkCGF-75" value="" style="endArrow=classic;html=1;rounded=0;entryX=0;entryY=0.25;entryDx=0;entryDy=0;fontSize=11;strokeWidth=0.25;endSize=6;startSize=6;" edge="1" parent="1">
          <mxGeometry width="50" height="50" relative="1" as="geometry">
            <mxPoint x="95" y="690" as="sourcePoint" />
            <mxPoint x="295" y="690" as="targetPoint" />
          </mxGeometry>
        </mxCell>
        <mxCell id="vCsGNLxAr_4zbirKkCGF-76" value="video_vs_n" style="edgeLabel;html=1;align=center;verticalAlign=middle;resizable=0;points=[];fontSize=11;" vertex="1" connectable="0" parent="vCsGNLxAr_4zbirKkCGF-75">
          <mxGeometry x="-0.0571" relative="1" as="geometry">
            <mxPoint as="offset" />
          </mxGeometry>
        </mxCell>
        <mxCell id="vCsGNLxAr_4zbirKkCGF-77" value="" style="endArrow=classic;html=1;rounded=0;entryX=0;entryY=0.25;entryDx=0;entryDy=0;fontSize=11;strokeWidth=1;endSize=6;startSize=6;" edge="1" parent="1">
          <mxGeometry width="50" height="50" relative="1" as="geometry">
            <mxPoint x="95" y="750" as="sourcePoint" />
            <mxPoint x="295" y="750" as="targetPoint" />
          </mxGeometry>
        </mxCell>
        <mxCell id="vCsGNLxAr_4zbirKkCGF-78" value="data_in" style="edgeLabel;html=1;align=center;verticalAlign=middle;resizable=0;points=[];fontSize=11;" vertex="1" connectable="0" parent="vCsGNLxAr_4zbirKkCGF-77">
          <mxGeometry x="-0.0428" y="1" relative="1" as="geometry">
            <mxPoint as="offset" />
          </mxGeometry>
        </mxCell>
        <mxCell id="vCsGNLxAr_4zbirKkCGF-79" value="" style="endArrow=classic;html=1;rounded=0;entryX=0;entryY=0.25;entryDx=0;entryDy=0;fontSize=11;strokeWidth=0.25;endSize=6;startSize=6;" edge="1" parent="1">
          <mxGeometry width="50" height="50" relative="1" as="geometry">
            <mxPoint x="95" y="710" as="sourcePoint" />
            <mxPoint x="295" y="710" as="targetPoint" />
          </mxGeometry>
        </mxCell>
        <mxCell id="vCsGNLxAr_4zbirKkCGF-80" value="video_hs_n" style="edgeLabel;html=1;align=center;verticalAlign=middle;resizable=0;points=[];fontSize=11;" vertex="1" connectable="0" parent="vCsGNLxAr_4zbirKkCGF-79">
          <mxGeometry x="-0.0571" relative="1" as="geometry">
            <mxPoint as="offset" />
          </mxGeometry>
        </mxCell>
        <mxCell id="vCsGNLxAr_4zbirKkCGF-81" value="" style="endArrow=classic;html=1;rounded=0;entryX=0;entryY=0.25;entryDx=0;entryDy=0;fontSize=11;strokeWidth=0.25;endSize=6;startSize=6;" edge="1" parent="1">
          <mxGeometry width="50" height="50" relative="1" as="geometry">
            <mxPoint x="95" y="730" as="sourcePoint" />
            <mxPoint x="295" y="730" as="targetPoint" />
          </mxGeometry>
        </mxCell>
        <mxCell id="vCsGNLxAr_4zbirKkCGF-82" value="data_de" style="edgeLabel;html=1;align=center;verticalAlign=middle;resizable=0;points=[];fontSize=11;" vertex="1" connectable="0" parent="vCsGNLxAr_4zbirKkCGF-81">
          <mxGeometry x="-0.0571" relative="1" as="geometry">
            <mxPoint as="offset" />
          </mxGeometry>
        </mxCell>
        <mxCell id="vCsGNLxAr_4zbirKkCGF-83" value="" style="endArrow=none;html=1;rounded=0;" edge="1" parent="1">
          <mxGeometry width="50" height="50" relative="1" as="geometry">
            <mxPoint x="520" y="650" as="sourcePoint" />
            <mxPoint x="720" y="650" as="targetPoint" />
          </mxGeometry>
        </mxCell>
        <mxCell id="vCsGNLxAr_4zbirKkCGF-84" value="symbol_col_cnt" style="edgeLabel;html=1;align=center;verticalAlign=middle;resizable=0;points=[];" vertex="1" connectable="0" parent="vCsGNLxAr_4zbirKkCGF-83">
          <mxGeometry x="-0.0024" y="-1" relative="1" as="geometry">
            <mxPoint as="offset" />
          </mxGeometry>
        </mxCell>
        <mxCell id="vCsGNLxAr_4zbirKkCGF-85" value="" style="endArrow=none;html=1;rounded=0;" edge="1" parent="1">
          <mxGeometry width="50" height="50" relative="1" as="geometry">
            <mxPoint x="520" y="680" as="sourcePoint" />
            <mxPoint x="720" y="680" as="targetPoint" />
          </mxGeometry>
        </mxCell>
        <mxCell id="vCsGNLxAr_4zbirKkCGF-86" value="symbol_row_cnt" style="edgeLabel;html=1;align=center;verticalAlign=middle;resizable=0;points=[];" vertex="1" connectable="0" parent="vCsGNLxAr_4zbirKkCGF-85">
          <mxGeometry x="-0.0024" y="-1" relative="1" as="geometry">
            <mxPoint as="offset" />
          </mxGeometry>
        </mxCell>
        <mxCell id="vCsGNLxAr_4zbirKkCGF-87" value="" style="endArrow=none;html=1;rounded=0;" edge="1" parent="1">
          <mxGeometry width="50" height="50" relative="1" as="geometry">
            <mxPoint x="520" y="715" as="sourcePoint" />
            <mxPoint x="720" y="715" as="targetPoint" />
          </mxGeometry>
        </mxCell>
        <mxCell id="vCsGNLxAr_4zbirKkCGF-88" value="symbol_binary_data" style="edgeLabel;html=1;align=center;verticalAlign=middle;resizable=0;points=[];" vertex="1" connectable="0" parent="vCsGNLxAr_4zbirKkCGF-87">
          <mxGeometry x="-0.0024" y="-1" relative="1" as="geometry">
            <mxPoint as="offset" />
          </mxGeometry>
        </mxCell>
        <mxCell id="vCsGNLxAr_4zbirKkCGF-89" value="" style="endArrow=none;html=1;rounded=0;strokeWidth=0.25;" edge="1" parent="1">
          <mxGeometry width="50" height="50" relative="1" as="geometry">
            <mxPoint x="520" y="790" as="sourcePoint" />
            <mxPoint x="720" y="790" as="targetPoint" />
          </mxGeometry>
        </mxCell>
        <mxCell id="vCsGNLxAr_4zbirKkCGF-90" value="video_refresh" style="edgeLabel;html=1;align=center;verticalAlign=middle;resizable=0;points=[];" vertex="1" connectable="0" parent="vCsGNLxAr_4zbirKkCGF-89">
          <mxGeometry x="-0.0024" y="-1" relative="1" as="geometry">
            <mxPoint as="offset" />
          </mxGeometry>
        </mxCell>
        <mxCell id="vCsGNLxAr_4zbirKkCGF-91" value="" style="endArrow=none;html=1;rounded=0;strokeWidth=0.25;" edge="1" parent="1">
          <mxGeometry width="50" height="50" relative="1" as="geometry">
            <mxPoint x="565" y="880" as="sourcePoint" />
            <mxPoint x="720" y="880" as="targetPoint" />
          </mxGeometry>
        </mxCell>
        <mxCell id="vCsGNLxAr_4zbirKkCGF-92" value="calc_start" style="edgeLabel;html=1;align=center;verticalAlign=middle;resizable=0;points=[];" vertex="1" connectable="0" parent="vCsGNLxAr_4zbirKkCGF-91">
          <mxGeometry x="-0.0024" y="-1" relative="1" as="geometry">
            <mxPoint as="offset" />
          </mxGeometry>
        </mxCell>
        <mxCell id="vCsGNLxAr_4zbirKkCGF-93" value="" style="rounded=0;whiteSpace=wrap;html=1;fillColor=#cdeb8b;strokeColor=#36393d;" vertex="1" parent="1">
          <mxGeometry x="735" y="643" width="147.5" height="50" as="geometry" />
        </mxCell>
        <mxCell id="vCsGNLxAr_4zbirKkCGF-94" value="SYMBOL_RECOGNIZE0" style="text;whiteSpace=wrap;" vertex="1" parent="1">
          <mxGeometry x="740" y="668" width="145" height="35" as="geometry" />
        </mxCell>
        <mxCell id="vCsGNLxAr_4zbirKkCGF-95" value="" style="rounded=0;whiteSpace=wrap;html=1;fillColor=#cdeb8b;strokeColor=#36393d;" vertex="1" parent="1">
          <mxGeometry x="733.75" y="718" width="147.5" height="50" as="geometry" />
        </mxCell>
        <mxCell id="vCsGNLxAr_4zbirKkCGF-96" value="SYMBOL_RECOGNIZE1" style="text;whiteSpace=wrap;" vertex="1" parent="1">
          <mxGeometry x="735" y="743" width="145" height="35" as="geometry" />
        </mxCell>
        <mxCell id="vCsGNLxAr_4zbirKkCGF-97" value="" style="rounded=0;whiteSpace=wrap;html=1;fillColor=#cdeb8b;strokeColor=#36393d;" vertex="1" parent="1">
          <mxGeometry x="732.5" y="783" width="147.5" height="50" as="geometry" />
        </mxCell>
        <mxCell id="vCsGNLxAr_4zbirKkCGF-98" value="SYMBOL_RECOGNIZE2" style="text;whiteSpace=wrap;" vertex="1" parent="1">
          <mxGeometry x="737.5" y="808" width="145" height="35" as="geometry" />
        </mxCell>
        <mxCell id="vCsGNLxAr_4zbirKkCGF-99" value="" style="rounded=0;whiteSpace=wrap;html=1;fillColor=#cdeb8b;strokeColor=#36393d;" vertex="1" parent="1">
          <mxGeometry x="732.5" y="858" width="147.5" height="50" as="geometry" />
        </mxCell>
        <mxCell id="vCsGNLxAr_4zbirKkCGF-100" value="SYMBOL_RECOGNIZE3" style="text;whiteSpace=wrap;" vertex="1" parent="1">
          <mxGeometry x="737.5" y="884" width="145" height="35" as="geometry" />
        </mxCell>
        <mxCell id="vCsGNLxAr_4zbirKkCGF-101" value="" style="endArrow=classic;html=1;rounded=0;endFill=1;" edge="1" parent="1">
          <mxGeometry width="50" height="50" relative="1" as="geometry">
            <mxPoint x="895" y="675" as="sourcePoint" />
            <mxPoint x="1215" y="675" as="targetPoint" />
          </mxGeometry>
        </mxCell>
        <mxCell id="vCsGNLxAr_4zbirKkCGF-102" value="symbol_detect_result" style="edgeLabel;html=1;align=center;verticalAlign=middle;resizable=0;points=[];" vertex="1" connectable="0" parent="vCsGNLxAr_4zbirKkCGF-101">
          <mxGeometry x="-0.0024" y="-1" relative="1" as="geometry">
            <mxPoint as="offset" />
          </mxGeometry>
        </mxCell>
        <mxCell id="vCsGNLxAr_4zbirKkCGF-103" value="" style="endArrow=classic;html=1;rounded=0;strokeWidth=0.25;endFill=1;" edge="1" parent="1">
          <mxGeometry width="50" height="50" relative="1" as="geometry">
            <mxPoint x="895" y="730" as="sourcePoint" />
            <mxPoint x="1215" y="730" as="targetPoint" />
          </mxGeometry>
        </mxCell>
        <mxCell id="vCsGNLxAr_4zbirKkCGF-104" value="symbol_result_valid" style="edgeLabel;html=1;align=center;verticalAlign=middle;resizable=0;points=[];" vertex="1" connectable="0" parent="vCsGNLxAr_4zbirKkCGF-103">
          <mxGeometry x="-0.0024" y="-1" relative="1" as="geometry">
            <mxPoint as="offset" />
          </mxGeometry>
        </mxCell>
        <mxCell id="vCsGNLxAr_4zbirKkCGF-105" value="DHA_SYMBOL_COMPARE" style="text;whiteSpace=wrap;fontStyle=1;fontSize=14;" vertex="1" parent="1">
          <mxGeometry x="522.5" y="975" width="215" height="35" as="geometry" />
        </mxCell>
      </root>
    </mxGraphModel>
  </diagram>
</mxfile>
